<?xml version="1.0" encoding="UTF-8" standalone="no"?>
<svg
   xmlns:dc="http://purl.org/dc/elements/1.1/"
   xmlns:cc="http://creativecommons.org/ns#"
   xmlns:rdf="http://www.w3.org/1999/02/22-rdf-syntax-ns#"
   xmlns:svg="http://www.w3.org/2000/svg"
   xmlns="http://www.w3.org/2000/svg"
   id="svg8"
   version="1.1"
   viewBox="0 0 94 40"
   height="40mm"
   width="94mm">
  <defs
     id="defs2" />
  <metadata
     id="metadata5">
    <rdf:RDF>
      <cc:Work
         rdf:about="">
        <dc:format>image/svg+xml</dc:format>
        <dc:type
           rdf:resource="http://purl.org/dc/dcmitype/StillImage" />
        <dc:title></dc:title>
      </cc:Work>
    </rdf:RDF>
  </metadata>
  <g
     transform="translate(0,-257)"
     id="layer1">
    <path
       id="path21"
       d="m 52.233768,287.5535 c 0,-4.7262 0.02059,-4.82379 1.019433,-4.84194 0.56068,-0.0117 1.586876,-0.052 2.280405,-0.0935 1.957658,-0.11649 3.043259,1.04039 3.043259,3.24314 0,1.07965 -0.314494,2.27643 -0.741674,2.82229 -0.636318,0.81313 -1.022501,0.91943 -2.718465,0.74833 l -1.976789,-0.19947 v 1.57228 c 0,0.86476 -0.20389,1.5723 -0.453073,1.5723 -0.27666,0 -0.453096,-1.87813 -0.453096,-4.82338 z m 4.520629,0.57636 c 0.723345,-0.78011 0.711626,-3.30974 -0.01899,-4.09769 -0.315273,-0.34002 -1.099651,-0.56298 -1.744349,-0.49597 -1.058093,0.1101 -1.185056,0.31319 -1.311844,2.09802 -0.07715,1.08684 -0.0326,2.22738 0.09902,2.5345 0.317402,0.74034 2.277403,0.7147 2.976164,-0.039 z M 6.4729117,289.2933 c 0,-0.13461 1.4271957,-2.05709 3.1715468,-4.27189 1.7443475,-2.21484 3.1719185,-4.06636 3.1723695,-4.11446 4.19e-4,-0.0485 -1.244437,-0.0244 -2.766424,0.0518 -1.6115877,0.0815 -2.9742768,-0.0458 -3.262985,-0.30414 -0.3589351,-0.32124 0.5920472,-0.4437 3.446039,-0.4437 2.167981,0 3.941106,0.13679 3.940283,0.30414 -7.89e-4,0.16728 -1.395441,2.03775 -3.099156,4.15665 l -3.0976633,3.85248 3.0991583,0.11909 c 4.451896,0.17113 3.84375,0.89467 -0.752009,0.89467 -2.118139,0 -3.8511593,-0.1101 -3.8511593,-0.24485 z m 9.7823013,-0.66753 c -1.661241,-2.29876 -1.01498,-5.18755 1.339807,-5.98887 1.297753,-0.44161 3.230158,0.0928 4.117937,1.13854 0.910608,1.07278 0.745819,3.47998 -0.321358,4.6943 -1.261914,1.43587 -4.148138,1.52355 -5.136386,0.15613 z m 4.247173,-0.68299 c 0.600512,-1.0043 0.600512,-2.69874 0,-3.70305 -1.024499,-1.7134 -4.061758,-0.32885 -4.061758,1.85153 0,2.1804 3.037259,3.56489 4.061758,1.85152 z m 4.277131,0.74181 c -1.245083,-1.2314 -1.173464,-4.11786 0.131135,-5.28561 3.301603,-2.95502 8.015374,1.74137 5.089416,5.07076 -1.21648,1.38415 -3.925517,1.49568 -5.220561,0.21491 z m 4.331352,-0.74181 c 0.600517,-1.0043 0.600517,-2.69874 0,-3.70305 -1.024504,-1.7134 -4.061766,-0.32885 -4.061766,1.85153 0,2.1804 3.037262,3.56489 4.061766,1.85152 z m 3.640563,-1.85152 c 0,-3.0891 0.08741,-3.44696 0.842025,-3.44696 0.598996,0 1.22014,0.75763 2.152111,2.62498 0.72056,1.4438 1.412046,2.62776 1.536638,2.63108 0.124586,0.003 0.769184,-1.13228 1.43241,-2.52364 0.861355,-1.80689 1.476219,-2.56667 2.152126,-2.65927 0.897254,-0.12302 0.946249,0.0505 0.946249,3.34559 0,2.8187 -0.128386,3.47518 -0.679619,3.47518 -0.530631,0 -0.679623,-0.54822 -0.679623,-2.50073 0,-2.83114 -0.258123,-2.80017 -1.602126,0.19234 -0.520114,1.15807 -1.22634,2.10559 -1.569417,2.10559 -0.343068,0 -1.049304,-0.94752 -1.569409,-2.10559 -1.34402,-2.99256 -1.602135,-3.02352 -1.602135,-0.19234 0,1.95251 -0.148991,2.50073 -0.679615,2.50073 -0.550802,0 -0.679615,-0.65333 -0.679615,-3.44696 z m 11.585849,2.80972 c -1.65752,-1.48356 -0.16337,-3.41799 2.640015,-3.41799 1.498513,0 1.678115,-0.10565 1.550102,-0.91245 -0.110982,-0.6993 -0.488687,-0.94208 -1.617289,-1.03948 -0.82711,-0.0713 -1.472497,0.062 -1.472497,0.30411 0,0.23723 -0.322816,0.43125 -0.717368,0.43125 -1.041879,0 -0.54039,-0.93001 0.822278,-1.52493 0.871186,-0.38034 1.49781,-0.3998 2.449255,-0.0761 1.767546,0.60148 1.961759,1.00925 1.96968,4.13548 0.0057,2.16557 -0.13501,2.73728 -0.672677,2.73728 -0.373797,0 -0.679623,-0.219 -0.679623,-0.48665 0,-0.37845 -0.120824,-0.37845 -0.543699,0 -0.769784,0.68903 -2.885607,0.60356 -3.728177,-0.15069 z m 3.395499,-0.59362 c 0.482016,-0.23097 0.876377,-0.77832 0.876377,-1.21655 0,-0.64161 -0.311602,-0.79679 -1.599986,-0.79679 -1.658699,0 -2.351772,0.67966 -1.860784,1.82489 0.303757,0.70848 1.340894,0.78411 2.584393,0.18852 z m 13.109484,-2.2161 c 0,-2.02759 0.186547,-3.44696 0.453072,-3.44696 0.249199,0 0.453081,0.6387 0.453081,1.41937 0,1.86637 0.888287,1.84667 2.595033,-0.0576 0.72804,-0.8122 1.59316,-1.3964 1.922505,-1.29819 0.415503,0.12417 0.150724,0.63546 -0.865023,1.67087 l -1.463812,1.4922 1.678691,1.83361 c 1.390594,1.51893 1.53325,1.83171 0.831245,1.82246 -0.466115,-0.007 -1.357189,-0.63981 -1.980168,-1.40817 -1.529028,-1.88584 -2.718471,-1.88584 -2.718471,0 0,0.78067 -0.203867,1.41932 -0.453081,1.41932 -0.266518,0 -0.453072,-1.41932 -0.453072,-3.44694 z m 8.338899,2.59314 c -1.204024,-1.19105 -1.108839,-4.17553 0.169653,-5.31985 1.071044,-0.95861 3.509971,-1.08612 4.462794,-0.23315 0.330427,0.29577 0.73276,1.12834 0.894039,1.85023 l 0.293306,1.31253 H 72.22584 c -2.984307,0 -3.521507,0.48625 -1.946532,1.76201 0.969871,0.78559 2.390599,0.87181 3.150973,0.19126 0.755829,-0.67652 1.255347,-0.0768 0.560335,0.67281 -0.867563,0.93566 -3.769097,0.79346 -4.809453,-0.23559 z m 4.347289,-3.72859 c 0,-1.49973 -2.807055,-2.05676 -3.608689,-0.71608 -0.707156,1.18265 -0.630647,1.24326 1.569834,1.24326 1.370847,0 2.038855,-0.17278 2.038855,-0.52718 z m 4.530791,1.54096 c 0,-2.97388 -0.02404,-3.04144 -1.132696,-3.04144 -0.623011,0 -1.132711,-0.18256 -1.132711,-0.40548 0,-0.23182 1.359246,-0.40555 3.171557,-0.40555 1.812317,0 3.17154,0.17383 3.17154,0.40555 0,0.22305 -0.611657,0.40548 -1.359223,0.40548 h -1.359249 v 3.04144 c 0,2.43318 -0.135786,3.04145 -0.679595,3.04145 -0.543704,0 -0.679623,-0.60827 -0.679623,-3.04145 z m -50.043301,-6.59598 c 1.048752,-0.65794 2.583371,-3.06081 2.583371,-4.04495 v -1.04628 l 0.824594,0.97731 c 0.81043,0.96051 0.803645,0.99821 -0.395708,2.19388 -1.660204,1.65513 -2.439584,2.23156 -3.007418,2.22417 -0.333239,-0.003 -0.334721,-0.0972 -0.0048,-0.30413 z m 3.600815,-0.0979 c -0.155087,-0.22471 0.08775,-0.52607 0.539612,-0.66989 0.451877,-0.1439 1.178398,-0.53582 1.614486,-0.87105 0.720904,-0.55414 0.792888,-0.52926 0.792888,0.27443 0,0.57571 -0.405249,1.02187 -1.162191,1.27942 -1.433307,0.48777 -1.439122,0.48772 -1.784795,-0.013 z m 8.139257,-0.13795 c 0.723651,-0.47359 0.765306,-0.72441 0.313139,-1.88538 -0.676916,-1.738 -0.688716,-1.70125 0.497867,-1.55039 0.62198,0.0788 1.071449,0.45506 1.152854,0.96438 0.144041,0.90127 -1.463253,3.01766 -2.291756,3.01766 -0.278735,0 -0.131185,-0.24591 0.327896,-0.54627 z m 8.40007,0.14085 c 0,-0.22307 0.270292,-0.40552 0.600646,-0.40552 1.218987,0 2.692258,-1.91474 2.478122,-3.22068 -0.19301,-1.1769 -0.161977,-1.20514 0.624454,-0.56816 1.090776,0.88355 1.049432,1.22829 -0.366762,3.05737 -0.812884,1.0499 -1.53638,1.54255 -2.26539,1.54255 -0.589094,0 -1.07107,-0.18257 -1.07107,-0.40556 z M 35.469895,279.0814 c 0,-1.42145 -0.996065,-2.93009 -2.098008,-3.17764 -0.570076,-0.12808 -1.4486,-0.85797 -1.952274,-1.62204 -0.503667,-0.76405 -1.174624,-1.4586 -1.491016,-1.54339 -2.210327,-0.59247 -2.204037,-0.5869 -1.614686,-1.43153 0.86351,-1.2376 1.648915,-1.32079 3.530841,-0.37414 1.518139,0.76373 1.978862,0.81495 3.918745,0.43588 1.773667,-0.34656 1.891994,-0.41523 0.612557,-0.35555 -1.425784,0.0668 -1.600523,-0.0412 -1.731964,-1.0674 -0.08041,-0.62774 0.188927,-1.59918 0.598524,-2.15869 0.725236,-0.99068 0.719934,-1.00542 -0.202984,-0.56332 -1.107958,0.53074 -1.834573,0.24486 -1.836457,-0.72268 -8e-4,-0.51017 -0.416846,-0.69391 -1.624299,-0.71759 -1.462474,-0.0288 -2.426229,-0.62386 -2.445136,-1.50996 -0.004,-0.17899 0.604723,-0.51608 1.352303,-0.74934 0.747578,-0.23317 1.359231,-0.58229 1.359231,-0.77568 0,-0.62803 1.86853,-1.26646 2.977491,-1.01732 0.597969,0.13403 1.914984,1.25346 2.948186,2.50527 1.176972,1.42597 2.478813,2.49033 3.521069,2.87869 0.909518,0.33894 1.803462,0.82382 1.986538,1.07755 0.197562,0.2738 0.335682,0.0982 0.339801,-0.432 0.01145,-1.42487 0.919802,-2.83174 2.154306,-3.33513 1.54154,-0.62869 1.774869,-0.29735 0.370601,0.52618 -1.138648,0.66775 -2.800613,4.57148 -2.399699,5.63659 0.103257,0.27436 0.332029,-0.18555 0.508361,-1.02187 l 0.320591,-1.52071 3.037747,-0.007 c 1.670746,-0.003 3.343579,-0.17925 3.717353,-0.39045 0.50072,-0.28312 0.721303,-1.349 0.837965,-4.04905 0.14191,-3.28457 0.486525,-4.29381 1.141964,-3.34461 0.121596,0.17631 0.03709,2.21548 -0.187635,4.53192 -0.366029,3.7717 -0.321416,4.34196 0.42706,5.45853 0.459696,0.68574 0.965634,1.74084 1.124294,2.34462 0.158669,0.60377 0.880301,1.60745 1.603648,2.23036 0.851831,0.73362 1.420746,1.72689 1.614918,2.81944 0.264971,1.49094 0.186787,1.7189 -0.673432,1.96325 -1.285388,0.36519 -1.681689,-0.0517 -0.990744,-1.04183 0.47893,-0.68639 0.397894,-0.94647 -0.562907,-1.80642 -0.617302,-0.55254 -1.36179,-1.00457 -1.654408,-1.00457 -0.292614,0 -1.347694,-0.65957 -2.344624,-1.4657 -1.866765,-1.50951 -2.796109,-1.62414 -6.06914,-0.74877 -0.745296,0.19944 -1.049344,0.0533 -1.287335,-0.61768 -0.171366,-0.48328 -0.405689,-0.79448 -0.520682,-0.69159 -0.11499,0.10313 0.515267,1.40929 1.400606,2.90297 0.885325,1.49365 1.591304,3.20244 1.568826,3.79728 -0.0399,1.05622 -0.05047,1.052 -0.449885,-0.18066 -0.422206,-1.30287 -3.017904,-3.16294 -5.022796,-3.59933 -0.580851,-0.12649 -1.973568,0.013 -3.094944,0.30784 -1.987356,0.52408 -2.039784,0.58068 -2.076,2.24097 -0.03716,1.70337 -0.642463,3.00878 -0.642463,1.38554 z m 7.158638,-8.27828 c 0.299033,-0.2677 0.523366,-0.86071 0.498525,-1.31794 -0.03836,-0.70626 -0.092,-0.681 -0.356326,0.1676 -0.181387,0.58231 -0.776738,1.11516 -1.427342,1.2775 -0.9482,0.23668 -0.976398,0.28462 -0.187379,0.31894 0.510847,0.0217 1.173472,-0.17843 1.472506,-0.4462 z"
       style="fill:#803300;stroke-width:0.42864257" />
    <path
       transform="matrix(0.26458333,0,0,0.26458333,0,266)"
       id="path167"
       d=""
       style="fill:#784421;stroke-width:0.34965035" />
  </g>
</svg>
